<svg width="40" height="41" viewBox="0 0 40 41" xmlns="http://www.w3.org/2000/svg"><title>competitions</title><g fill="currentColor" fill-rule="evenodd"><g stroke="currentColor" stroke-width=".2"><path d="M20.284 10.8v.698c0 .04.008.058.055.056.1-.002.202-.002.303 0 .04 0 .05-.014.05-.048V10.09c0-.046-.02-.053-.065-.05-.09.003-.18.005-.27 0-.057-.004-.076.008-.075.06.003.234 0 .467 0 .7m4.46-6.493c0 .327.002.654 0 .98 0 .05.017.07.07.06.08-.014.165-.024.246-.046.395-.107.696-.474.7-.857.003-.368 0-.736.002-1.104 0-.05-.018-.063-.07-.063-.29.002-.582.003-.873 0-.064 0-.078.02-.077.073.002.32 0 .638 0 .957m-8.51.006v-.975c0-.045-.01-.06-.063-.06h-.886c-.06-.002-.07.017-.07.066.003.35.003.697 0 1.046 0 .13.024.257.08.377.154.344.493.553.865.58.057.006.074-.01.074-.065-.003-.323 0-.646 0-.97m10.337-.6h.002v-.824a.387.387 0 0 0-.377-.36c-.466-.004-.933-.002-1.4-.003-.043 0-.052.017-.05.053 0 .086.003.172-.002.258-.003.054.014.07.074.07.377-.002.755-.002 1.133 0 .126 0 .213.077.213.193 0 .452.002.904-.002 1.356 0 .163-.04.322-.115.47-.247.49-.664.755-1.245.794-.044.003-.058.016-.057.056.003.09.004.18 0 .27 0 .045.018.056.063.055.194-.003.382-.04.563-.1.72-.242 1.196-.872 1.2-1.585.003-.234 0-.47 0-.704m-11.756.09v-.67c0-.154.077-.226.244-.226.37 0 .738 0 1.108.002.052 0 .07-.014.068-.063a2.372 2.372 0 0 1 0-.253c.003-.052-.016-.066-.072-.065-.45.002-.9 0-1.348 0-.23 0-.408.166-.41.38 0 .518 0 1.034.003 1.55 0 .095.01.19.03.28.086.383.286.705.607.96.32.253.692.387 1.113.406.055.003.08-.007.077-.065a2.036 2.036 0 0 1 0-.247c.002-.05-.012-.068-.07-.07a1.322 1.322 0 0 1-.494-.106c-.555-.243-.84-.653-.855-1.22-.006-.198 0-.395 0-.593m5.667 8.882h2.368c.06 0 .076-.016.074-.07a2.48 2.48 0 0 1 0-.286c.014-.215-.187-.41-.428-.4-.19.007-.38 0-.57 0-1.148 0-2.297.004-3.445 0-.235-.002-.44.177-.427.4.006.095.004.19 0 .287-.002.052.012.07.073.07.785-.002 1.57 0 2.356 0m.007-11.285h-3.435c-.244 0-.42.16-.42.387v4.283a3.419 3.419 0 0 0 1.152 2.58c.646.583 1.42.92 2.318 1.007a4.07 4.07 0 0 0 1.86-.254 3.758 3.758 0 0 0 1.55-1.09c.528-.624.817-1.335.823-2.13.01-1.468.003-2.937.003-4.406a.294.294 0 0 0-.013-.098c-.06-.18-.206-.278-.41-.278h-3.428m.003-.374h3.434c.453 0 .813.333.817.75 0 .105.003.21 0 .317-.003.05.014.064.067.064.442-.002.883-.002 1.325 0 .387 0 .676.188.8.527a.65.65 0 0 1 .038.213c.003.517.02 1.034-.002 1.55-.036.85-.478 1.47-1.304 1.844-.28.126-.578.18-.888.186-.042 0-.056.012-.06.053-.133 1.013-.606 1.862-1.43 2.54-.4.325-.85.57-1.348.738-.255.087-.52.148-.788.188-.044.007-.058.022-.058.065.002.48.002.96 0 1.44 0 .048.018.058.066.057.452 0 .904-.002 1.356 0 .45.003.806.333.81.75 0 .183-.005.365 0 .547.004.103-.098.208-.223.208a1520.77 1520.77 0 0 0-5.232 0c-.12 0-.222-.102-.22-.203.005-.192 0-.384.002-.576.004-.335.282-.643.636-.706.07-.012.142-.02.213-.02h1.306c.062 0 .077-.017.077-.072-.002-.474-.002-.948 0-1.422 0-.043-.014-.06-.06-.07-.232-.048-.468-.088-.693-.158a4.2 4.2 0 0 1-1.956-1.262 3.807 3.807 0 0 1-.68-1.11c-.12-.3-.196-.607-.234-.923-.005-.046-.02-.062-.07-.064-.854-.038-1.498-.4-1.92-1.09a1.686 1.686 0 0 1-.245-.714 3.62 3.62 0 0 1-.022-.358 80.737 80.737 0 0 1 0-1.392c.003-.33.17-.573.498-.705a.976.976 0 0 1 .332-.06c.442-.007.883-.004 1.324 0 .06 0 .077-.017.078-.073.003-.158 0-.318.024-.474.04-.26.317-.514.596-.56.09-.015.184-.023.276-.023 1.12-.002 2.242 0 3.363 0"/><path d="M21.476 4.986c-.013-.008-.016-.012-.02-.012l-.53-.075c-.085-.012-.15-.048-.187-.124-.073-.145-.148-.29-.222-.434-.007-.012-.02-.022-.03-.033-.01.01-.023.02-.03.033-.073.142-.148.285-.218.428-.04.082-.106.118-.196.13-.134.017-.267.035-.4.054-.047.007-.093.017-.15.027.025.026.04.045.057.06.12.115.24.228.36.34.05.05.08.107.067.176-.02.118-.043.235-.064.353-.012.065-.022.13-.034.208.03-.012.048-.017.064-.025.14-.072.28-.142.42-.217a.237.237 0 0 1 .244-.002c.11.058.22.114.33.17.048.025.096.047.15.074.003-.022.007-.035.004-.048-.027-.156-.05-.313-.085-.468a.226.226 0 0 1 .073-.234c.117-.107.23-.218.345-.327.017-.016.032-.034.05-.054m-.985-1.33c.08.008.144.04.18.114.116.228.234.455.347.684.03.06.062.093.14.102.262.03.52.072.782.11a.19.19 0 0 1 .157.128c.027.07.004.133-.05.184-.134.132-.272.26-.41.392-.06.06-.125.115-.183.177-.02.022-.035.06-.03.087.04.265.087.53.133.794.015.083-.007.152-.082.2-.075.05-.15.04-.226 0-.233-.12-.466-.236-.697-.358a.13.13 0 0 0-.133 0c-.227.12-.457.235-.685.354-.08.042-.158.056-.237.003-.077-.05-.096-.12-.08-.207.047-.26.09-.52.136-.78.008-.044-.006-.07-.037-.1l-.57-.54c-.06-.058-.098-.122-.07-.202.03-.085.096-.124.192-.136.266-.035.533-.075.8-.116.024-.004.052-.03.064-.053.12-.23.238-.46.354-.693.04-.08.097-.136.202-.143"/></g><path d="M26.85 33.154v6.05c0 .275-.018.244.35.244h9.757c.4 0 .4 0 .4-.284V27.066c-.002-.193-.01-.198-.28-.198h-9.98c-.245 0-.246.002-.246.172v6.114M13.083 31.01c0-2.76 0-5.522.004-8.284 0-.13-.048-.167-.238-.166-3.326.004-6.652.003-9.98.003-.288 0-.29 0-.29.2.002 1.913.004 3.825.004 5.738L2.58 39.266c0 .176.012.184.26.184h9.978c.264 0 .264 0 .264-.182V31.01m12.098-3.692h.002v-9.656c0-.775-.003-1.55.002-2.326 0-.12-.047-.177-.233-.166-.164.01-.332.003-.498.003-3.185 0-6.37 0-9.555-.003-.175 0-.226.047-.223.16.006.298 0 .595.002.893.01 1.95.024 3.902.033 5.854.002.435-.01.87-.01 1.305v15.9c0 .096-.007.17.196.17 3.34-.005 6.678-.004 10.017-.003.267 0 .27-.002.27-.19-.002-.938-.003-1.877-.003-2.817v-9.125m-5.21 13.23H1.88c-.4 0-.674-.114-.822-.368a.426.426 0 0 1-.048-.212c-.003-3.175-.002-6.35-.002-9.526 0-2.792.006-5.585-.008-8.377-.002-.345.425-.605.87-.604 3.655.01 7.31.006 10.963.006.256 0 .255 0 .255-.184 0-2.198.002-4.395 0-6.593 0-.28.165-.48.544-.585a.756.756 0 0 1 .213-.03h12.167c.432 0 .774.28.773.624-.003.714-.013 1.43-.013 2.144-.002 2.926 0 5.85-.007 8.777 0 .148.1.145.25.145 3.68-.002 7.358 0 11.037-.002.4 0 .69.114.835.38.034.06.043.132.043.2.003 1.873.002 3.747.002 5.622 0 2.663-.006 5.325.01 7.988 0 .31-.42.6-.86.6-6.037-.008-12.074-.006-18.11-.006" stroke="currentColor" stroke-width=".2"/><path d="M19.816 18.356c-.347.173-.648.313-.938.473-.137.075-.19.035-.222-.097 0-.006-.003-.012-.005-.018-.117-.436-.117-.436.276-.65.185-.1.376-.19.553-.3.277-.175.57-.24.896-.223.182.01.23.073.23.247-.005 1.09-.002 2.18-.003 3.27 0 .84-.005 1.68.002 2.52.002.182-.06.236-.236.234-.555-.006-.555 0-.555-.56v-4.897m-13.67 7.45c-.045-.1-.08-.173-.11-.246-.14-.334-.148-.352.16-.53.826-.482 1.684-.598 2.546-.11.5.28.727.768.785 1.33.07.69-.15 1.312-.56 1.84-.43.55-.92 1.057-1.39 1.578-.144.162-.306.308-.46.462-.04.04-.073.088-.14.17.12.007.19.015.26.016.74 0 1.48.006 2.22 0 .17-.002.242.035.24.227-.003.495.005.492-.485.492-1.086-.002-2.172-.005-3.258.002-.163 0-.198-.047-.212-.21-.025-.307.074-.522.296-.735a46.99 46.99 0 0 0 1.686-1.714c.382-.41.726-.856.88-1.415.1-.376.104-.757-.06-1.12-.19-.425-.713-.655-1.243-.57a2.296 2.296 0 0 0-.933.388c-.065.046-.132.087-.223.145m26.542 6.05c.195.088.36.146.507.232.944.55 1.033 1.922.178 2.675-.457.403-1.002.544-1.59.55a3.319 3.319 0 0 1-1.47-.324c-.108-.05-.134-.097-.072-.212.215-.4.21-.397.64-.222.53.216 1.072.3 1.62.08.497-.198.746-.592.738-1.12-.007-.49-.3-.896-.766-1.09-.34-.142-.693-.17-1.052-.15-.175.01-.24-.043-.235-.23.015-.48-.028-.414.405-.42.344-.005.675-.048.973-.243.35-.227.518-.616.43-.998a.948.948 0 0 0-.85-.743c-.453-.05-.867.066-1.267.265-.066.032-.133.062-.23.11-.076-.198-.155-.384-.215-.577-.01-.033.048-.112.093-.137.596-.33 1.223-.483 1.904-.36.467.086.85.296 1.096.718a1.5 1.5 0 0 1-.617 2.085c-.063.034-.128.066-.218.112"/></g></svg>