<svg width="13" height="17" viewBox="0 0 13 17" xmlns="http://www.w3.org/2000/svg"><title>Page 1</title><g fill="currentColor" fill-rule="evenodd"><path d="M6.233 1.997c.735 0 1.47 0 2.206.002.08 0 .11-.023.107-.108a8.946 8.946 0 0 1 0-.518.69.69 0 0 0-.708-.706c-.794.01-1.587.003-2.38.003-.3 0-.6-.002-.9.003-.297.004-.58.242-.615.534-.026.222-.018.448-.022.673-.002.117 0 .117.12.117h2.19m4.62 6.934h.015c0-.12-.005-.24 0-.36.05-.958.106-1.914.156-2.87.052-.99.1-1.98.15-2.97.005-.073-.02-.1-.09-.094-.023.002-.045 0-.067 0H1.402c-.06-.004-.084.02-.08.082.013.192.02.384.03.576l.1 1.882.097 1.834.102 1.923.098 1.85c.034.64.07 1.277.102 1.916.04.79.08 1.583.124 2.375.006.1.03.21.074.3.133.265.36.368.656.368 2.37-.003 4.74-.002 7.11-.002.035 0 .07 0 .106-.002.332-.02.598-.3.612-.633.02-.482.045-.965.07-1.447.04-.748.084-1.496.123-2.244.043-.828.083-1.656.125-2.483m-4.595 7.454h-3.58c-.574 0-1.04-.31-1.252-.84a1.248 1.248 0 0 1-.082-.376c-.037-.558-.063-1.118-.093-1.677l-.076-1.495-.09-1.644-.075-1.47-.092-1.662-.074-1.455L.76 4.221c-.027-.493-.056-.986-.08-1.48-.003-.08-.028-.104-.106-.102-.162.004-.325 0-.487.002-.065 0-.09-.02-.09-.086.004-.15.006-.3 0-.45-.003-.08.02-.105.102-.104.758.002 1.516 0 2.273 0 .27 0 .54 0 .81.003.078 0 .108-.022.105-.103-.005-.19-.003-.38 0-.57.008-.605.39-1.095.98-1.247.12-.03.245-.044.367-.044C5.71.032 6.78.032 7.853.036c.607 0 1.09.35 1.272.925.035.114.045.238.05.358.008.186.002.373.003.56 0 .12 0 .12.118.12h3.05c.123 0 .123 0 .123.12 0 .14-.004.28 0 .42.002.072-.02.102-.098.1-.154-.006-.308 0-.463-.003-.073-.002-.093.026-.096.096l-.122 2.295c-.03.587-.057 1.174-.087 1.76l-.1 1.932c-.04.795-.08 1.59-.122 2.385-.04.737-.082 1.474-.12 2.21-.033.6-.057 1.197-.09 1.794-.033.58-.32.988-.868 1.195a1.35 1.35 0 0 1-.477.08c-1.19.007-2.38.004-3.57.004"/><path d="M6.556 9.2v5.097c0 .116 0 .116-.117.116-.15 0-.3-.002-.448 0-.06.003-.086-.02-.08-.08.002-.017 0-.034 0-.05V4.103c0-.025.002-.05 0-.074 0-.047.022-.064.066-.064h.513c.052 0 .07.022.066.07v5.163M9.174 4.2c-.032.465-.064.93-.094 1.396L8.992 7.05l-.13 2.078c-.034.526-.068 1.05-.1 1.577-.045.695-.09 1.39-.133 2.086-.034.52-.068 1.036-.098 1.554-.004.074-.025.1-.104.09-.153-.015-.307-.02-.46-.028-.06-.002-.084-.025-.08-.085.014-.188.024-.377.036-.566L8.1 11.02l.13-2.087c.045-.698.09-1.396.133-2.095l.1-1.568c.026-.416.057-.832.08-1.25.005-.067.03-.082.09-.077.16.013.32.023.48.03.047.003.07.02.065.07-.004.052-.005.105-.008.157h.004zm-5.487-.226c.268-.002.238-.05.254.196.06.85.113 1.703.166 2.554.037.59.07 1.178.108 1.767l.122 1.808c.026.402.048.805.073 1.208.026.42.055.838.082 1.257l.082 1.306c.006.084.01.17.02.253.004.05-.01.078-.065.08-.175.01-.348.024-.52.03-.02.002-.052-.03-.054-.047-.025-.334-.046-.668-.067-1.002l-.094-1.446-.075-1.216-.08-1.265c-.03-.435-.056-.87-.085-1.306l-.09-1.346-.076-1.24c-.03-.458-.06-.915-.093-1.372-.013-.18-.015-.18.16-.2l.23-.018"/></g></svg>