<?xml version="1.0" encoding="UTF-8"?>
<svg width="89px" height="130px" viewBox="0 0 89 130" version="1.1" xmlns="http://www.w3.org/2000/svg" xmlns:xlink="http://www.w3.org/1999/xlink">
    <!-- Generator: Sketch 40.3 (33839) - http://www.bohemiancoding.com/sketch -->
    <title>Design</title>
    <desc>Created with Sketch.</desc>
    <defs></defs>
    <g id="Page-2" stroke="none" stroke-width="1" fill="none" fill-rule="evenodd">
        <g id="Become-a-Lumumba-Designer" transform="translate(-275.000000, -576.000000)">
            <g id="Design" transform="translate(277.000000, 578.000000)">
                <path d="M59.4849,80.39215 C57.5014,70.00165 53.7919,55.44815 53.7919,46.33065 C53.7919,33.88515 61.8859,2.42615 61.8859,2.42615 C61.9084,2.31015 61.9209,2.19415 61.9209,2.06915 C61.9209,1.07165 61.1024,0.25665 60.0974,0.25665 L46.2789,0.28165 C45.7959,0.28165 45.3429,0.46965 45.0014,0.80865 L31.0854,14.72065 L17.1694,0.80165 C16.8279,0.46315 16.3744,0.27515 15.8919,0.27515 L2.0734,0.25015 C1.0684,0.25015 0.2499,1.06515 0.2499,2.06215 C0.2499,2.18765 0.2624,2.30365 0.2844,2.41965 C0.2844,2.41965 8.3789,33.87865 8.3789,46.32365 C8.3789,58.76915 1.4679,81.34265 1.4679,89.63215 C1.4679,97.92165 1.4409,101.16765 1.4409,101.16765 C1.4409,102.17465 2.2609,102.99565 3.2689,102.99565 L39.3104,103.00015" id="Stroke-1" stroke="#231F20" stroke-width="3.5" stroke-linecap="round" stroke-linejoin="round"></path>
                <path d="M8.37865,52.2786 L53.79215,52.2851" id="Stroke-3" stroke="#231F20" stroke-width="3.5" stroke-linecap="round" stroke-linejoin="round"></path>
                <path d="M8.37865,40.369 L53.79215,40.3755" id="Stroke-5" stroke="#231F20" stroke-width="3.5" stroke-linecap="round" stroke-linejoin="round"></path>
                <path d="M84.5311,103.0025 C84.5311,115.49 74.4081,125.613 61.9206,125.613 C49.4331,125.613 39.3101,115.49 39.3101,103.0025 C39.3101,90.515 49.4331,80.392 61.9206,80.392 C74.4081,80.392 84.5311,90.515 84.5311,103.0025 L84.5311,103.0025 Z" id="Stroke-7" stroke="#231F20" stroke-width="3.5" stroke-linecap="round" stroke-linejoin="round"></path>
                <path d="M65.3019,109.38305 C65.3019,109.38305 56.9599,99.34405 55.5954,97.70155 C54.2309,96.05955 55.0579,90.83005 56.0194,91.98705 L68.3619,106.84055" id="Fill-9" fill="#231F20"></path>
                <path d="M66.37535,112.94265 C67.58885,114.40315 69.75685,114.60365 71.21735,113.38965 C72.67835,112.17615 72.87835,110.00815 71.66485,108.54765 C70.45085,107.08715 68.28285,106.88665 66.82235,108.10065 C65.36185,109.31415 65.16185,111.48215 66.37535,112.94265" id="Fill-11"></path>
                <path d="M66.37535,112.94265 C67.58885,114.40315 69.75685,114.60365 71.21735,113.38965 C72.67835,112.17615 72.87835,110.00815 71.66485,108.54765 C70.45085,107.08715 68.28285,106.88665 66.82235,108.10065 C65.36185,109.31415 65.16185,111.48215 66.37535,112.94265 L66.37535,112.94265 Z" id="Stroke-13" stroke="#231F20" stroke-width="3.5" stroke-linecap="round" stroke-linejoin="round"></path>
                <path d="M58.53935,109.38305 C58.53935,109.38305 66.88135,99.34405 68.24585,97.70155 C69.61035,96.05955 68.78335,90.83005 67.82185,91.98705 L55.47935,106.84055" id="Fill-15" fill="#231F20"></path>
                <path d="M57.4659,112.94265 C56.2524,114.40315 54.0844,114.60365 52.6239,113.38965 C51.1629,112.17615 50.9629,110.00815 52.1764,108.54765 C53.3904,107.08715 55.5584,106.88665 57.0189,108.10065 C58.4794,109.31415 58.6794,111.48215 57.4659,112.94265" id="Fill-17" fill="#FFFFFF"></path>
                <path d="M57.4659,112.94265 C56.2524,114.40315 54.0844,114.60365 52.6239,113.38965 C51.1629,112.17615 50.9629,110.00815 52.1764,108.54765 C53.3904,107.08715 55.5584,106.88665 57.0189,108.10065 C58.4794,109.31415 58.6794,111.48215 57.4659,112.94265 L57.4659,112.94265 Z" id="Stroke-19" stroke="#231F20" stroke-width="3.5" stroke-linecap="round" stroke-linejoin="round"></path>
                <path d="M62.86455,102.3834 C62.86455,102.9334 62.41855,103.3789 61.86905,103.3789 C61.31905,103.3789 60.87305,102.9334 60.87305,102.3834 C60.87305,101.8334 61.31905,101.3879 61.86905,101.3879 C62.41855,101.3879 62.86455,101.8334 62.86455,102.3834" id="Fill-21" fill="#FFFFFF"></path>
            </g>
        </g>
    </g>
</svg>