<svg width="20" height="20" viewBox="0 0 20 20" xmlns="http://www.w3.org/2000/svg"><title>Page 1</title><path d="M4.85 8.732v-.31l.002-6.867c0-.156 0-.157-.152-.157-1.272 0-2.543 0-3.815-.002-.096 0-.11.036-.11.12 0 2.37 0 4.74-.002 7.11 0 .094.03.115.117.115 1.287-.002 2.575 0 3.863 0 .035 0 .07-.006.098-.008m.768-3.776v.43c0 .907.002 1.814-.002 2.72 0 .103.032.128.13.124.145-.007.292-.004.44 0 .255.01.486.093.633.31.14.207.277.42.372.65.35.843.68 1.695 1.02 2.542.133.328.22.678.435.967.164.218.33.437.507.644.488.57.99 1.126 1.6 1.57.507.37.835.864 1.014 1.46.178.587.265 1.193.32 1.804.02.227.037.454.06.68.006.045.027.102.06.126.288.205.61.254.95.18.313-.068.51-.287.65-.56.178-.34.256-.708.29-1.087a4.084 4.084 0 0 0-.157-1.527c-.105-.368-.29-.702-.46-1.042-.302-.605-.617-1.205-.782-1.868-.077-.31-.106-.622-.022-.937.076-.29.212-.403.504-.394 1.25.036 2.497.065 3.746-.003.496-.027.996-.037 1.468-.234.267-.11.504-.246.618-.53.113-.28.17-.573.198-.872.028-.297-.067-.543-.316-.723a.746.746 0 0 1-.138-.137c-.137-.166-.187-.353-.137-.566.04-.17.146-.294.262-.415.087-.092.182-.18.25-.286.136-.207.13-.446.117-.68-.016-.254-.11-.462-.35-.58-.045-.02-.086-.05-.127-.074-.296-.184-.415-.42-.338-.75a.94.94 0 0 1 .205-.37.819.819 0 0 0 .2-.555 3.08 3.08 0 0 0-.026-.36c-.044-.315-.19-.566-.47-.73a7.107 7.107 0 0 1-.198-.123.95.95 0 0 1-.47-.876c.005-.23-.016-.462-.034-.692a1.006 1.006 0 0 0-.364-.71c-.33-.28-.714-.45-1.127-.534a8.173 8.173 0 0 0-1.258-.154c-1.65-.068-3.298.03-4.944.157-.156.012-.31.03-.466.055-.257.04-.513.087-.77.132l-.99.176-.99.175c-.33.06-.66.118-.992.172-.095.016-.125.056-.124.153.003 1.047.002 2.094.002 3.14M0 5.076c0-1.323.002-2.648 0-3.972C0 .803.184.628.467.63c1.527.006 3.053.002 4.58 0 .185 0 .317.072.395.244.012.026.06.053.088.05.46-.08.917-.163 1.376-.243l1.212-.21c.334-.06.666-.13 1-.178.37-.053.744-.098 1.117-.128.51-.04 1.02-.064 1.532-.095A28.9 28.9 0 0 1 14.71.015c.49.02.984.065 1.466.155.657.124 1.265.383 1.745.874.283.287.44.635.47 1.037.02.26.037.52.04.78 0 .127.046.208.15.272.132.083.266.166.39.26.347.272.518.645.59 1.07.047.276.06.554.013.835-.04.242-.14.454-.292.64-.054.068-.045.1.028.14.433.243.637.626.693 1.112.046.383.01.75-.165 1.092-.086.167-.222.31-.345.456-.055.065-.073.098.002.16.326.278.47.642.475 1.063.005.496-.095.97-.306 1.42-.197.42-.553.655-.967.833-.43.185-.884.238-1.342.27-1.267.09-2.535.06-3.804.04-.184-.003-.19.007-.154.192.07.364.204.707.36 1.04.238.502.494.996.727 1.5.3.655.413 1.347.393 2.065-.016.58-.128 1.137-.4 1.655-.22.42-.54.73-.996.887-.34.118-.686.132-1.037.043a1.905 1.905 0 0 1-.666-.293.9.9 0 0 1-.394-.715c-.03-.47-.088-.94-.145-1.41a4.548 4.548 0 0 0-.265-1.086c-.135-.35-.35-.64-.65-.86-.715-.527-1.307-1.178-1.872-1.853-.264-.314-.524-.635-.686-1.017-.132-.31-.244-.63-.37-.944-.31-.777-.622-1.552-.934-2.327l-.016-.035c-.19-.37-.19-.37-.604-.37-.098 0-.196 0-.294-.002-.056 0-.084.012-.074.078.034.235-.153.436-.412.436H.43c-.262 0-.43-.175-.43-.442v-3.99" fill="currentColor" fill-rule="evenodd"/></svg>