<svg width="16" height="17" viewBox="0 0 16 17" xmlns="http://www.w3.org/2000/svg"><title>Page 1</title><path d="M12.822 5.385c-.023-.027-.042-.05-.063-.072-.817-.833-1.633-1.665-2.448-2.5-.053-.054-.086-.06-.14-.002a45.1 45.1 0 0 1-.75.764c-.055.057-.05.09.003.145.232.23.46.466.69.7.586.6 1.173 1.198 1.76 1.797.038.04.07.08.127.02.258-.266.518-.53.776-.794.015-.015.026-.035.044-.058M2.226 13.558c.045-.005.07-.005.092-.012l.452-.143 1.35-.426c.425-.134.852-.267 1.277-.402.1-.032.1-.038.025-.115l-1.26-1.286c-.288-.294-.576-.59-.865-.883-.058-.058-.07-.055-.095.025-.027.086-.054.172-.08.26l-.38 1.254-.422 1.4-.094.328M14.48 3.22c0-.204-.11-.438-.297-.632a93.35 93.35 0 0 0-1.206-1.232.946.946 0 0 0-1.375.001c-.277.274-.547.556-.82.832-.047.046-.048.08 0 .125.124.122.244.248.365.372.7.713 1.397 1.425 2.095 2.14.04.04.073.072.13.014.27-.282.55-.56.82-.844.184-.193.29-.426.29-.776m-5.61.926c-.028.026-.05.045-.072.067-1.726 1.76-3.45 3.522-5.178 5.282-.057.058-.058.09 0 .15.817.83 1.63 1.66 2.445 2.492.076.078.076.078.15.002 1.726-1.762 3.45-3.523 5.178-5.283.057-.058.06-.092 0-.15-.253-.254-.503-.512-.754-.768-.564-.578-1.13-1.155-1.695-1.73-.02-.022-.045-.04-.073-.064m6.242-.835c-.014.477-.167.905-.513 1.256-.757.77-1.51 1.542-2.267 2.313l-5.8 5.92c-.036.036-.073.07-.104.11-.08.1-.188.138-.307.17-.198.05-.393.117-.59.178l-1.27.4c-.338.105-.677.213-1.016.32l-1.143.358c-.09.028-.18.058-.27.085-.137.043-.264.03-.37-.078-.106-.11-.116-.24-.075-.378l.384-1.272.355-1.176.38-1.273.18-.592c.016-.055.026-.114.05-.167.026-.06.054-.126.098-.17.712-.73 1.427-1.454 2.14-2.18l3.51-3.582 1.378-1.404c.4-.41.798-.82 1.202-1.225.42-.422.93-.56 1.505-.478a1.69 1.69 0 0 1 1.003.54c.337.353.68.7 1.025 1.046.348.35.502.778.514 1.283M5.81 15.494h5.425c.19 0 .33.11.367.292a.34.34 0 0 1-.197.367.497.497 0 0 1-.194.034c-1.683.002-3.366 0-5.05 0H.403c-.158.002-.292-.037-.366-.194a.344.344 0 0 1 .307-.498c.33-.003.66 0 .992 0H5.81" fill="currentColor" fill-rule="evenodd"/></svg>