<svg width="9" height="6" viewBox="0 0 9 6" xmlns="http://www.w3.org/2000/svg"><title>Fill 1</title><path d="M4.503 4.853a.354.354 0 0 1-.27-.117l-1.408-1.41-1.688-1.688C1.06 1.56 1 1.478 1 1.363c0-.147.077-.28.207-.33a.333.333 0 0 1 .388.07c.148.142.292.29.438.435l2.41 2.41c.056.057.056.057.113 0L7.38 1.123a.352.352 0 0 1 .258-.12c.147 0 .276.077.33.208a.336.336 0 0 1-.068.385c-.162.168-.328.33-.493.496L4.782 4.72c-.08.08-.165.137-.28.135" stroke="currentColor" fill="currentColor" fill-rule="evenodd"/></svg>