<svg width="41" height="41" viewBox="0 0 41 41" xmlns="http://www.w3.org/2000/svg" xmlns:xlink="http://www.w3.org/1999/xlink"><title>Page 1</title><defs><path id="a" d="M40.96.034H0v40.553h40.96V.034z"/></defs><g fill="currentColor" fill-rule="evenodd"><g transform="translate(0 .048)"><mask id="b"><use xlink:href="#a"/></mask><path d="M20.505 1.797H2.073c-.295 0-.295 0-.295.285v36.45c0 .298 0 .298.304.298h36.78c.363 0 .325.04.325-.317V2.083c0-.286 0-.286-.293-.286h-18.39m20.456 18.5v9.547c0 3.23 0 6.46-.002 9.69 0 .165 0 .34-.056.49-.15.387-.458.562-.88.562-1.476-.003-2.95 0-4.426 0h-9.582c-3.242-.002-6.485 0-9.727 0-5.073 0-10.146 0-15.218-.004-.172 0-.357 0-.512-.06-.383-.15-.56-.453-.558-.86.002-.565 0-1.13 0-1.695C0 31.48.003 24.99.003 18.5V2.073c0-.35.014-.703-.002-1.053C-.025.426.39.03.998.034c2.22.014 4.44.005 6.66.005L24.98.037c4.982 0 9.964.002 14.947-.003.434 0 .786.122.96.54.06.147.067.322.068.484.003 3.024.002 6.048.002 9.072v10.167" mask="url(#b)"/></g><path d="M21.377 23.896c0 .8.003 1.598-.003 2.397 0 .167.038.25.232.248 1.607-.005 3.214 0 4.82-.002.29 0 .296-.007.296-.29v-4.69c0-.31-.002-.31-.308-.31-1.6 0-3.2.002-4.8-.004-.183 0-.243.05-.24.234.008.806.003 1.612.003 2.418zm-8.91-.004c0-.812-.004-1.625.003-2.437.002-.164-.05-.212-.214-.21-1.64.004-3.283.004-4.924 0-.165-.002-.213.05-.213.212.004 1.618.005 3.236 0 4.854-.002.18.05.235.234.234a567.71 567.71 0 0 1 4.883 0c.187 0 .235-.057.234-.235-.008-.807-.003-1.612-.003-2.418zm11.58-16.756c-.82 0-1.64.004-2.46-.003-.167-.002-.214.052-.213.213.005 1.624.005 3.25 0 4.874 0 .165.054.21.216.21 1.634-.006 3.27-.006 4.903 0 .184 0 .236-.052.235-.234-.007-1.61-.007-3.222 0-4.833 0-.187-.06-.232-.238-.23-.814.007-1.628.003-2.442.003zm7.125 26.452c.828 0 1.655-.003 2.483.003.143 0 .192-.04.192-.186a805.243 805.243 0 0 1 0-4.915c0-.16-.054-.196-.205-.195-1.648.004-3.296.004-4.944 0-.153 0-.203.04-.202.196a726.39 726.39 0 0 1 0 4.896c0 .17.057.206.215.205.82-.006 1.642-.002 2.462-.002zM12.466 9.782c0-.813-.004-1.625.004-2.437 0-.16-.037-.214-.208-.213-1.648.006-3.296.006-4.943 0-.158 0-.2.048-.2.2.004 1.632.004 3.263 0 4.895 0 .148.034.203.196.202 1.648-.006 3.296-.006 4.943 0 .167 0 .212-.05.21-.212-.007-.812-.003-1.624-.004-2.436zM14.24 30.95c0 .805.004 1.61-.004 2.417-.002.173.054.224.226.223a611.88 611.88 0 0 1 4.885.002c.2 0 .242-.068.24-.25-.005-1.61-.005-3.223 0-4.835 0-.162-.048-.213-.213-.213-1.642.006-3.285.006-4.927 0-.167 0-.212.058-.21.217.006.814.002 1.626.002 2.44zm16.93-11.48c.812 0 1.626-.004 2.44.004.18.002.238-.047.237-.23a556.143 556.143 0 0 1 0-4.833c0-.178-.05-.237-.236-.236-1.632.007-3.266.006-4.9 0-.17 0-.214.057-.213.215.004 1.624.004 3.25 0 4.873-.002.163.044.212.21.21.82-.007 1.64-.003 2.462-.003zm-14.258.003c.82 0 1.64-.003 2.46.003.163 0 .22-.05.218-.212a784.732 784.732 0 0 1 0-4.852c0-.18-.056-.237-.24-.237-1.606.007-3.212.004-4.817.004-.29 0-.293.005-.294.29 0 1.588.003 3.178-.005 4.768 0 .203.08.24.258.24.806-.006 1.613-.003 2.42-.003zm14.238-7.05c.828 0 1.655-.002 2.483.004.16 0 .215-.037.214-.207-.006-1.624-.006-3.25 0-4.873 0-.175-.054-.218-.224-.218-1.634.006-3.268.006-4.902 0-.168 0-.225.04-.225.217.007 1.624.007 3.248 0 4.873 0 .168.054.208.214.207.813-.007 1.627-.004 2.44-.004zM9.817 28.298c-.82 0-1.64.005-2.462-.003-.178-.002-.238.038-.237.226.008 1.618.007 3.236 0 4.853 0 .174.053.22.224.218 1.634-.004 3.27-.004 4.903 0 .167.002.227-.037.226-.215-.006-1.624-.006-3.25 0-4.873 0-.167-.05-.21-.213-.208-.813.007-1.627.003-2.44.003zm14.233 5.29c.82 0 1.64-.002 2.46.003.16.002.22-.04.218-.21a653.944 653.944 0 0 1 0-4.852c0-.182-.052-.234-.235-.233-1.627.006-3.254.006-4.882 0-.18 0-.236.048-.236.23.007 1.62.007 3.236.002 4.854 0 .16.047.213.212.21.82-.006 1.64-.002 2.462-.002zm4.45-9.695c0 .805.005 1.61-.003 2.416-.002.175.042.238.232.237 1.633-.007 3.267-.006 4.9 0 .166 0 .217-.05.217-.212-.005-1.625-.005-3.25 0-4.874 0-.16-.044-.215-.21-.215-1.635.006-3.27.006-4.903 0-.18 0-.24.045-.238.23.01.806.004 1.61.004 2.417zM14.242 9.762c0 .82.003 1.638-.003 2.457-.002.144.032.21.194.21a920.38 920.38 0 0 1 4.985-.002c.126 0 .168-.042.168-.168-.003-1.638-.003-3.276.002-4.914 0-.16-.048-.213-.214-.212-1.64.005-3.282.005-4.923 0-.162 0-.216.047-.214.212.007.805.002 1.61.002 2.415zm-7.118 7.066c0 .806.005 1.612-.005 2.418-.003.184.055.233.236.233 1.642-.008 3.284-.007 4.926-.005.13 0 .187-.027.187-.17-.005-1.64-.005-3.28 0-4.92 0-.145-.038-.205-.2-.204-1.643.006-3.285.006-4.927 0-.178 0-.224.064-.223.23.007.806.003 1.612.004 2.418zm9.795 9.712c.813 0 1.627-.004 2.44.004.177.002.23-.058.23-.227a982.532 982.532 0 0 1 0-4.856c0-.158-.047-.217-.213-.216-1.636.005-3.27.005-4.906 0-.186 0-.234.067-.234.243.006 1.598.006 3.196 0 4.794 0 .197.058.267.26.265.81-.01 1.616-.004 2.423-.005zm7.13-7.065c.806 0 1.613-.005 2.42.004.202 0 .26-.063.258-.262-.007-1.584-.004-3.168-.003-4.753 0-.28-.003-.284-.296-.284h-4.76c-.292 0-.293 0-.293.284 0 1.585.004 3.17-.005 4.753 0 .217.072.265.276.263.8-.01 1.6-.005 2.4-.005zm11.57.878c0 4.587 0 9.174-.002 13.76 0 .213.008.435-.047.636-.1.364-.428.584-.836.59-.69.008-1.378.006-2.067.006H17.702c-3.79 0-7.583-.005-11.375 0-.427 0-.75-.15-.912-.546-.06-.147-.067-.323-.068-.485-.002-3.08 0-6.158 0-9.236 0-6.234 0-12.467-.005-18.7 0-.424.133-.763.546-.93.148-.06.325-.07.49-.07 4.208-.004 8.417-.002 12.626-.002 5.19 0 10.38 0 15.57-.005.443 0 .8.12.976.55.058.14.063.308.064.463.003 2.418.002 4.835.002 7.252v6.715h.003z"/><path d="M16.04 16.835c0-.5.37-.87.875-.872a.875.875 0 0 1 .896.883c0 .474-.413.875-.894.87a.873.873 0 0 1-.877-.88m15.16-.873c.485.012.87.404.862.88a.892.892 0 0 1-1.783-.038c.02-.492.415-.855.92-.842M17.81 30.936a.892.892 0 0 1-.885.888.875.875 0 0 1-.886-.878.871.871 0 0 1 .875-.887.89.89 0 0 1 .895.876M9.788 8.897a.898.898 0 0 1 .897.878.898.898 0 0 1-.887.887.896.896 0 0 1-.896-.878.895.895 0 0 1 .886-.887m21.39 21.161c.477 0 .89.414.886.89a.906.906 0 0 1-.9.878c-.476-.007-.882-.405-.886-.87a.902.902 0 0 1 .9-.898M24.926 9.795a.88.88 0 0 1-.875.87.893.893 0 0 1-.894-.9.892.892 0 0 1 .903-.868.88.88 0 0 1 .866.898M9.79 24.76c-.5-.007-.895-.398-.888-.878a.89.89 0 0 1 .918-.874c.473.008.867.41.867.885a.88.88 0 0 1-.898.867m14.261 0c-.504 0-.893-.378-.894-.87 0-.486.392-.88.883-.882a.869.869 0 0 1 .885.874.853.853 0 0 1-.876.877"/></g></svg>