<svg width="22" height="20" viewBox="0 0 22 20" xmlns="http://www.w3.org/2000/svg"><title>Page 1</title><path d="M1.005 5.418c-.008 1.135.215 1.885.5 2.62.35.89.806 1.733 1.315 2.547.997 1.596 2.168 3.062 3.473 4.428 1.38 1.446 2.88 2.757 4.588 3.83.08.05.134.044.21-.003a21.042 21.042 0 0 0 2.722-2.04 28.828 28.828 0 0 0 4.184-4.533c1.035-1.394 1.955-2.852 2.56-4.48.19-.513.34-1.037.39-1.58a4.397 4.397 0 0 0-.494-2.517c-.773-1.456-1.988-2.344-3.646-2.64a4.866 4.866 0 0 0-2.265.135c-1.064.312-1.93.903-2.586 1.778-.31.414-.59.85-.882 1.274-.083.12-.093.12-.172.005-.238-.347-.472-.697-.713-1.042-.9-1.287-2.133-2.032-3.728-2.197a4.68 4.68 0 0 0-2.367.343c-1.954.846-2.966 2.337-3.088 4.072m20.964.295a7.263 7.263 0 0 1-.48 2.392c-.567 1.553-1.41 2.963-2.373 4.308a29.422 29.422 0 0 1-5 5.42c-.84.708-1.725 1.36-2.67 1.932-.128.077-.27.132-.412.186-.04.017-.098 0-.143-.016-.327-.112-.606-.308-.89-.495-2.034-1.34-3.792-2.973-5.38-4.788C3.4 13.256 2.31 11.77 1.416 10.15 1.002 9.4.64 8.63.373 7.818.14 7.11-.037 6.386.007 5.636.147 3.31 1.303 1.622 3.424.574A5.59 5.59 0 0 1 6.35.02c1.887.137 3.4.954 4.525 2.443.01.013.016.026.026.038.077.104.082.1.165.003.26-.3.506-.62.795-.893a5.822 5.822 0 0 1 2.5-1.385c.805-.22 1.622-.29 2.444-.16 2.136.337 3.688 1.458 4.626 3.367.387.788.544 1.627.54 2.28" fill="currentColor" fill-rule="evenodd"/></svg>