<svg width="63" height="64" viewBox="0 0 63 64" xmlns="http://www.w3.org/2000/svg" xmlns:xlink="http://www.w3.org/1999/xlink"><title>Page 1</title><defs><path id="a" d="M6.214.058H.122v16.017h6.092V.058z"/></defs><g fill="none" fill-rule="evenodd"><g transform="translate(28.954 .073)"><mask id="b" fill="#fff"><use xlink:href="#a"/></mask><path d="M.138 8.082c0-1.672-.005-3.345.002-5.018C.147 1.404 1.51.06 3.17.058c1.66 0 3.033 1.346 3.037 3.008.01 3.37.008 6.74.002 10.108-.005 1.504-1.335 2.81-2.84 2.896-1.97.112-3.305-1.548-3.246-3.114.06-1.623.014-3.25.014-4.874" fill="#221F20" mask="url(#b)"/></g><path d="M17.47 4.316c.888.04 1.723.535 2.277 1.483.966 1.653 1.925 3.31 2.886 4.966.695 1.198 1.393 2.395 2.082 3.596.546.952.526 1.918-.037 2.844-.566.93-1.442 1.39-2.53 1.347-1.04-.042-1.832-.565-2.356-1.464-1.304-2.238-2.603-4.478-3.904-6.717-.37-.635-.74-1.27-1.1-1.91-1.042-1.85.328-4.153 2.68-4.147M3.775 18.303c.006-2.327 2.112-3.6 3.807-2.65 2.95 1.657 5.88 3.347 8.81 5.04 1.073.62 1.517 1.854 1.145 3.032-.352 1.116-1.525 1.892-2.74 1.758a2.852 2.852 0 0 1-1.054-.36c-2.87-1.625-5.73-3.27-8.59-4.91-.89-.51-1.36-1.27-1.378-1.91m3.621 16.744c-1.66 0-3.32-.025-4.978.008-1.21.024-2.424-.978-2.418-2.36.006-1.318 1.06-2.368 2.413-2.37 3.344-.006 6.687-.007 10.03-.002a2.36 2.36 0 0 1 2.354 2.385c-.002 1.304-1.025 2.33-2.35 2.336-1.683.008-3.367.002-5.05.002m-3.184 12.19c.04-.585.363-1.212 1.06-1.614 2.405-1.388 4.815-2.77 7.223-4.154.482-.277.96-.56 1.445-.83 1.08-.6 2.39-.272 2.98.74.613 1.05.31 2.31-.775 2.94a652.398 652.398 0 0 1-8.707 4.993c-1.483.833-3.23-.21-3.225-2.074M17.5 60.187c-1.706-.008-2.658-1.524-1.95-2.793 1.156-2.07 2.37-4.11 3.56-6.163.482-.833.962-1.668 1.445-2.502.39-.674.985-1.034 1.76-1.013.773.02 1.368.382 1.705 1.095.308.652.233 1.283-.125 1.896a2451.07 2451.07 0 0 0-2.764 4.746c-.708 1.218-1.42 2.434-2.122 3.656-.39.68-.958 1.064-1.51 1.08m12.909-2.991c0-1.636-.004-3.272 0-4.908.004-.982.748-1.74 1.7-1.745.97-.004 1.74.756 1.74 1.75.006 3.296.004 6.592 0 9.888-.003.975-.764 1.74-1.71 1.746-.974.004-1.726-.745-1.73-1.75-.01-1.66-.003-3.32-.003-4.982h.003zm16.605 2.568c-.618-.053-1.053-.305-1.343-.806-1.1-1.895-2.206-3.786-3.308-5.68-.545-.937-1.09-1.873-1.628-2.814-.47-.822-.26-1.695.498-2.123.747-.422 1.636-.146 2.103.656 1.623 2.788 3.247 5.576 4.867 8.366.56.963.25 1.933-.737 2.307-.155.058-.328.068-.452.093m2.275-18.56c.118.04.363.087.566.203 2.876 1.638 5.748 3.283 8.617 4.93.495.285.75.72.682 1.293-.063.537-.472 1.003-1.04 1.055-.345.032-.752-.077-1.058-.25-2.63-1.48-5.246-2.99-7.866-4.49-.23-.133-.47-.253-.69-.4-.494-.333-.7-.89-.537-1.415.176-.563.63-.91 1.328-.925m7.535-7.466c-1.624 0-3.247 0-4.87-.002-.707 0-1.183-.424-1.183-1.038 0-.62.472-1.07 1.165-1.07 3.272-.005 6.543-.004 9.815.002.68 0 1.19.478 1.178 1.07-.013.614-.492 1.037-1.198 1.038-1.636.004-3.272 0-4.907 0zm1.898-15.78c-.028.34-.247.584-.573.77-2.078 1.187-4.152 2.38-6.227 3.57-.744.426-1.485.86-2.234 1.277-.573.32-1.107.14-1.3-.42-.133-.38.02-.752.44-.996 1.2-.698 2.406-1.39 3.61-2.08 1.583-.91 3.167-1.815 4.75-2.722.297-.17.592-.334.957-.207.318.11.57.436.576.81M47.617 7.17c-.05.117-.1.267-.176.4a5807.46 5807.46 0 0 1-4.844 8.328c-.224.386-.488.53-.775.444-.43-.13-.573-.544-.322-.99.373-.658.76-1.31 1.142-1.964 1.258-2.163 2.516-4.325 3.772-6.49.145-.248.36-.45.638-.37.2.057.356.276.52.434.037.034.028.113.047.207" fill="#221F20"/></g></svg>