<svg width="42" height="43" viewBox="0 0 42 43" xmlns="http://www.w3.org/2000/svg"><title>Page 1</title><path d="M20.667 2.056c-5.4.193-9.157 4.817-8.97 9.665.217 5.58 4.866 9.44 9.91 9.08 5.302-.377 8.918-4.894 8.668-9.81-.28-5.525-4.93-9.166-9.608-8.934m.328 38.936h18.392c.486 0 .527-.01.427-.492-.228-1.09-.437-2.19-.767-3.252-.907-2.91-2.33-5.546-4.325-7.847-2.906-3.35-6.486-5.55-10.856-6.314a16.733 16.733 0 0 0-7.44.38c-2.805.78-5.263 2.183-7.42 4.137C6.44 29.923 4.6 32.748 3.36 35.98a21.732 21.732 0 0 0-1.197 4.46c-.085.548-.06.552.476.552h18.355M19.67 21.868c-3.194-.58-5.705-2.157-7.435-4.92-1.38-2.205-1.856-4.63-1.44-7.198.807-4.98 5.038-8.753 10.21-8.75 5.043.003 9.427 3.762 10.18 8.747.438 2.903-.188 5.573-1.935 7.928-1.733 2.337-4.074 3.685-6.946 4.18.153.034.305.084.46.1 2.184.215 4.265.807 6.237 1.778 3.664 1.804 6.49 4.533 8.622 8.016 1.2 1.96 2.11 4.055 2.65 6.3.273 1.14.458 2.305.69 3.458.067.328-.01.45-.375.45-13.065-.01-26.13-.01-39.194 0-.366 0-.424-.123-.38-.45.526-4.034 1.85-7.76 4.207-11.078 2.457-3.46 5.62-6.016 9.6-7.483 1.42-.523 2.888-.85 4.395-.993.153-.014.303-.057.455-.086" stroke="currentColor" stroke-width=".7" fill="currentColor" fill-rule="evenodd"/></svg>