<svg width="9" height="15" viewBox="0 0 9 15" xmlns="http://www.w3.org/2000/svg"><title>Fill 1</title><path d="M8 7.38c.003.175-.08.33-.215.463l-2.162 2.16c-1.156 1.156-2.312 2.31-3.466 3.467-.14.14-.292.246-.5.246-.267 0-.508-.144-.6-.378-.104-.26-.068-.503.13-.706.287-.294.58-.58.87-.87C3.49 10.326 4.924 8.89 6.358 7.46c.098-.1.098-.1 0-.2-1.713-1.71-3.425-3.423-5.14-5.134-.128-.13-.212-.275-.215-.462a.616.616 0 0 1 .372-.603.623.623 0 0 1 .707.124c.275.267.544.54.816.812l4.883 4.882c.135.134.22.288.217.5" stroke="currentColor" fill="currentColor" fill-rule="evenodd"/></svg>