<svg width="58" height="42" viewBox="0 0 58 42" xmlns="http://www.w3.org/2000/svg"><title>Page 1</title><g fill="currentColor" fill-rule="evenodd"><path d="M28.968 40.38h26.28c.44 0 .44 0 .44-.42V19.063c0-4.806 0-9.612-.01-14.418 0-.3-.047-.62-.155-.898-.364-.933-1.116-1.407-2.17-1.407l-16.02-.002H13.4c-2.948 0-5.895.002-8.842 0-.925-.002-1.633.37-2.082 1.183-.254.46-.257.967-.257 1.476.003 8.898 0 17.797.002 26.695 0 2.783.004 5.566-.005 8.348 0 .282.094.38.362.344.043-.006.09 0 .135 0h26.253zm27.93 1.208H1.01v-.36c0-12.184.01-24.37-.01-36.555C.997 2.703 2.526 1.1 4.6 1.108c4.002.018 8.004.01 12.006.01 7.586-.002 15.172-.005 22.758-.005 4.666 0 9.332 0 13.998.007 1.41.003 2.48.617 3.154 1.858.25.462.386.963.386 1.5-.004 12.268-.003 24.534-.003 36.8v.31z" stroke="currentColor" stroke-width=".4"/><path d="M28.955 21.033c5.22 0 10.443 0 15.664.005.252 0 .347-.058.346-.33-.01-2.365-.006-4.732-.006-7.1 0-.352-.008-.36-.37-.36-10.415 0-20.83 0-31.247-.002-.395 0-.397 0-.397.39 0 2.34.002 4.68.004 7.02 0 .377 0 .377.395.377h15.61zm-.03 1.447c-5.702 0-11.405-.002-17.11.005-.263 0-.334-.076-.333-.336.01-3.334.01-6.668 0-10 0-.28.078-.345.35-.345 11.417.006 22.833.006 34.25-.002.28 0 .345.078.345.35-.01 3.287-.005 6.575-.006 9.863 0 .496.074.467-.465.467h-17.03v-.003zm9.499 4.372c-2.064 0-4.128.003-6.193-.005-.25 0-.346.054-.345.327.01 2.366.01 4.732.003 7.098 0 .26.068.34.333.338 4.12-.008 8.24-.005 12.36-.006.374 0 .378-.002.378-.376.002-2.34.002-4.678.002-7.017 0-.355-.003-.358-.37-.358h-6.166m-.005 9.225h-7.613c-.393 0-.393-.002-.393-.393 0-3.297 0-6.594.002-9.89 0-.408 0-.41.403-.41h15.224c.376 0 .376.002.376.366v9.972c0 .354 0 .355-.36.355h-7.64m-19.345.132c-2.42 0-4.84-.004-7.26.006-.263 0-.35-.074-.33-.334.022-.278.017-.56 0-.84-.013-.23.08-.292.3-.292 1.555.007 3.11.003 4.666.003 3.285 0 6.57.002 9.852.003.422 0 .423 0 .423.42 0 .243-.015.488.002.73.016.24-.07.31-.31.31-1.775-.01-3.55-.005-5.322-.005h-2.02zm.028-10.525h7.258c.362 0 .362 0 .363.36 0 .26-.01.524.005.785.013.23-.083.294-.302.293-1.592-.006-3.184-.002-4.776-.002-3.265 0-6.53 0-9.796-.002-.365 0-.365 0-.365-.373 0-.29-.012-.58.01-.866.004-.07.112-.178.182-.186.215-.025.435-.01.654-.01h6.767zm-.029 5.978c-2.42 0-4.84-.004-7.26.006-.266 0-.348-.08-.33-.336.022-.27.022-.543.002-.813-.02-.248.084-.3.314-.3 1.628.01 3.257.004 4.885.004 3.21 0 6.422 0 9.633.002.402 0 .403 0 .406.403 0 .242-.015.487.003.73.018.24-.075.31-.312.307-1.71-.008-3.42-.004-5.13-.003h-2.21zM8.757 6.42c-.545 0-.973-.413-.977-.946a.972.972 0 0 1 .986-.973c.532.01.97.445.968.968a.968.968 0 0 1-.977.95M6.8 5.455c0 .556-.417.966-.98.965a.974.974 0 0 1-.97-.96.984.984 0 0 1 .98-.96c.535 0 .97.425.97.955m4.874.965c-.555-.005-.964-.414-.96-.96a.96.96 0 0 1 .97-.962c.524 0 .97.448.97.972 0 .53-.437.953-.98.95"/></g></svg>