<svg width="16" height="17" viewBox="0 0 16 17" xmlns="http://www.w3.org/2000/svg"><title>Page 1</title><path d="M1.233 6.932c.01.138.02.398.053.654.073.552.22 1.084.452 1.59.388.85.952 1.553 1.706 2.104.852.623 1.81.962 2.86 1.046 1.105.088 2.16-.095 3.138-.62 1.663-.89 2.59-2.3 2.85-4.152.12-.842.04-1.673-.216-2.488a5.227 5.227 0 0 0-1.184-2.053c-1.03-1.1-2.317-1.655-3.812-1.737-.89-.05-1.752.1-2.574.454a5.239 5.239 0 0 0-2.22 1.77c-.716.986-1.04 2.1-1.053 3.432M0 6.765a6.62 6.62 0 0 1 1.266-3.817A6.976 6.976 0 0 1 3.9.714a6.419 6.419 0 0 1 1.624-.55 6.374 6.374 0 0 1 2.165-.06c1.667.25 3.045 1.026 4.164 2.272a6.675 6.675 0 0 1 1.4 2.427c.266.822.37 1.665.297 2.53a6.456 6.456 0 0 1-.672 2.395 6.973 6.973 0 0 1-3.085 3.117 6.476 6.476 0 0 1-1.745.61 6.32 6.32 0 0 1-2.156.058c-1.7-.254-3.098-1.05-4.224-2.333A6.74 6.74 0 0 1 .34 8.863 6.85 6.85 0 0 1 0 6.765m12.296 4.965a.693.693 0 0 1 .514.214c.625.626 1.252 1.25 1.877 1.874.393.39.787.78 1.176 1.175a.61.61 0 0 1-.178.99c-.238.114-.51.06-.714-.142l-2.122-2.116c-.315-.314-.633-.626-.944-.945a.608.608 0 0 1 .18-.99c.078-.036.17-.048.212-.06" fill="currentColor" fill-rule="evenodd"/></svg>