<svg width="41" height="41" viewBox="0 0 41 41" xmlns="http://www.w3.org/2000/svg"><title>Page 1</title><path d="M29 7.708c-.02-.08-.024-.115-.035-.15-.59-1.826-1.186-3.65-1.767-5.48-.067-.213-.164-.267-.373-.266-1.72.007-3.438.007-5.156 0-.205 0-.286.042-.285.267.01 1.785.01 3.57.002 5.356 0 .216.053.3.284.298 2.365-.008 4.728-.005 7.09-.006.072 0 .142-.012.24-.02m-13.248.024c1.193 0 2.385-.003 3.578.003.188 0 .26-.056.26-.255-.006-1.815-.005-3.63 0-5.444 0-.16-.045-.223-.214-.223-1.778.005-3.555.003-5.333 0-.13 0-.194.042-.235.176-.177.578-.37 1.152-.556 1.728-.407 1.257-.815 2.514-1.22 3.772-.076.238-.07.24.187.242h3.532M2.514 7.714c.15.008.235.017.32.017 1.348.002 2.697.002 4.045.002.962 0 1.925-.004 2.888.003.187 0 .3-.037.348-.244.054-.235.15-.46.226-.693l1.31-4.046c.096-.298.188-.598.293-.934h-.254c-1.8 0-3.6.005-5.4-.005-.23 0-.354.076-.47.273-.876 1.507-1.766 3.008-2.65 4.51-.21.355-.416.712-.656 1.12m35.928.003c-.05-.106-.07-.167-.104-.223-1.08-1.834-2.163-3.666-3.24-5.5-.073-.125-.15-.18-.297-.18-1.844.005-3.688.003-5.533.005-.07 0-.14.01-.236.02.153.464.296.897.436 1.33.467 1.44.938 2.88 1.394 4.322.063.197.157.245.347.245 2.32-.005 4.637-.003 6.956-.004.078 0 .156-.007.28-.014M5.815 9.55v.002c-1.26 0-2.518.002-3.777-.004-.175 0-.23.05-.228.226.01.69.006 1.378.003 2.067-.003.51.08 1 .253 1.478.717 1.98 2.893 3.105 4.932 2.425 1.655-.552 2.607-1.75 2.76-3.5.07-.803.022-1.614.04-2.42.006-.216-.06-.278-.273-.277-1.237.01-2.474.005-3.71.005m9.772 0c-1.245 0-2.49.005-3.734-.004-.207 0-.262.063-.258.265.012.66.007 1.32.004 1.978-.003.69.127 1.352.444 1.97.905 1.764 2.934 2.594 4.76 1.984 1.752-.587 2.784-2.086 2.78-3.936 0-.66-.01-1.32.005-1.977.007-.236-.074-.285-.29-.283-1.237.008-2.474.004-3.71.004m19.58 0c-1.238 0-2.475.007-3.712-.005-.23-.002-.287.07-.283.29.014.667 0 1.334.007 2 .004.49.076.97.235 1.44.673 1.994 2.94 3.135 4.952 2.482a4.014 4.014 0 0 0 2.79-3.818c.005-.712-.007-1.424.006-2.134.004-.212-.066-.26-.264-.26-1.244.01-2.49.005-3.733.005m-9.767 0c-1.244 0-2.49.007-3.733-.004-.23-.002-.288.068-.284.29.014.666.005 1.333.004 2 0 .592.104 1.163.342 1.706.827 1.884 2.93 2.84 4.867 2.2 1.726-.57 2.77-2.068 2.775-3.893 0-.682-.01-1.364.005-2.045.004-.213-.068-.26-.265-.258-1.237.008-2.475.004-3.712.004m-4.936 29.613c2.646 0 5.29-.003 7.937.004.205 0 .28-.042.28-.266-.006-4.838-.006-9.678 0-14.517 0-.19-.045-.253-.246-.253-5.284.005-10.568.004-15.852.004-.288 0-.288 0-.288.294 0 4.817 0 9.634-.004 14.45 0 .22.045.29.28.29 2.63-.01 5.262-.005 7.893-.005M10.695 15.09c-.072.092-.118.148-.16.207A5.798 5.798 0 0 1 3.94 17.45c-.3-.1-.3-.1-.3.215v21.188c0 .31 0 .31.302.31h6.203c.322 0 .322 0 .322-.33v-16.23c0-.284.01-.294.304-.294 5.233-.002 10.465-.002 15.697-.002h3.713c.33 0 .33 0 .33.34v1.088c0 5.054 0 10.108-.004 15.162 0 .196.044.27.26.27 2.074-.01 4.15-.006 6.224-.006.346 0 .346 0 .346-.352V17.644c0-.3-.002-.297-.277-.203a5.695 5.695 0 0 1-3.132.18c-1.458-.33-2.628-1.115-3.496-2.34-.04-.057-.087-.11-.15-.19l-.17.21c-1.45 1.91-3.358 2.727-5.734 2.353-1.56-.245-2.783-1.068-3.712-2.336-.183-.25-.175-.252-.356-.002-1.387 1.92-3.652 2.792-5.94 2.307-1.47-.312-2.644-1.11-3.518-2.34-.04-.058-.09-.11-.157-.193m9.77 25.885H4.793c-.66 0-1.32.003-1.98-.002-.636-.004-.997-.373-.997-1.014 0-7.826 0-15.652.005-23.478a.724.724 0 0 0-.218-.545C.552 14.822.016 13.493.004 11.96c-.01-1.06 0-2.12-.003-3.18 0-.265.06-.502.2-.735C1.69 5.525 3.174 3.002 4.658.478c.206-.35.518-.48.912-.477 1.438.005 2.875 0 4.313 0 4.587 0 9.175 0 13.762.002 3.92 0 7.84.002 11.76-.002.437 0 .738.174.96.552 1.472 2.514 2.956 5.02 4.425 7.535.107.182.173.415.176.626.016 1.17.045 2.343 0 3.512-.06 1.452-.624 2.71-1.636 3.76a.565.565 0 0 0-.172.43c.005 7.825 0 15.65.01 23.477.002.572-.302 1.094-1.094 1.09-4.573-.012-9.145-.007-13.718-.007h-3.89" fill="currentColor" fill-rule="evenodd"/></svg>