<svg width="35" height="42" viewBox="0 0 35 42" xmlns="http://www.w3.org/2000/svg"><title>Page 1</title><path d="M32.476 12.718V3.43c0-.257-.007-.255-.246-.208-.75.15-1.495.317-2.25.432-.816.125-1.64.21-2.464.293-1.517.154-3.04.18-4.563.122a16.002 16.002 0 0 1-1.312-.11 47.147 47.147 0 0 1-2.12-.292 74.207 74.207 0 0 1-2.482-.46c-.735-.146-1.463-.324-2.198-.468-.98-.19-1.956-.392-2.942-.537-.958-.14-1.923-.26-2.89-.306-1.57-.073-3.145-.023-4.702.236a28.89 28.89 0 0 0-2.07.446c-.37.088-.366.11-.366.497V21.5c.006.204.05.233.248.18.287-.075.572-.158.863-.215 1.394-.274 2.803-.398 4.22-.436 1.646-.043 3.284.05 4.91.328.863.148 1.727.293 2.587.462.874.17 1.74.383 2.614.554.992.195 1.985.39 2.985.538.944.138 1.895.273 2.847.306 3.048.108 6.065-.156 9.034-.896.234-.06.305-.145.305-.38-.007-3.076-.004-6.15-.004-9.224M34.33.618v.257c.002 7.488 0 14.976.005 22.465 0 .175-.03.27-.224.34-.915.32-1.848.576-2.803.74-1.03.18-2.063.362-3.102.482a34.68 34.68 0 0 1-4.603.195 23.415 23.415 0 0 1-3.528-.33 192.98 192.98 0 0 1-3.836-.712c-1.034-.203-2.06-.447-3.093-.643-2.32-.44-4.65-.65-7.015-.465-1.088.086-2.17.204-3.232.453a7.003 7.003 0 0 0-.85.26c-.077.03-.133.144-.172.23-.026.06-.006.14-.006.21v17.535c0 .33 0 .33-.322.33-.425 0-.85-.013-1.275.005-.223.01-.297-.07-.266-.28.006-.042 0-.085 0-.128 0-13.212 0-26.425-.004-39.638 0-.208.06-.333.233-.452.622-.432 1.32-.688 2.047-.84C3.25.433 4.227.246 5.21.145c1.557-.16 3.125-.202 4.688-.05 1 .097 1.997.22 2.99.373.802.124 1.595.308 2.392.47.88.178 1.757.37 2.638.54.888.173 1.776.36 2.672.478 1.003.13 2.013.23 3.023.27 1.56.06 3.113-.05 4.664-.224 1.225-.137 2.44-.327 3.634-.63.767-.194 1.512-.466 2.267-.703.033-.01.067-.02.154-.05" fill="currentColor" fill-rule="evenodd"/></svg>