<?xml version="1.0" encoding="UTF-8"?>
<svg width="89px" height="130px" viewBox="0 0 89 130" version="1.1" xmlns="http://www.w3.org/2000/svg" xmlns:xlink="http://www.w3.org/1999/xlink">
    <!-- Generator: Sketch 40.3 (33839) - http://www.bohemiancoding.com/sketch -->
    <title>Upload</title>
    <desc>Created with Sketch.</desc>
    <defs></defs>
    <g id="Page-2" stroke="none" stroke-width="1" fill="none" fill-rule="evenodd">
        <g id="Become-a-Lumumba-Designer" transform="translate(-676.000000, -576.000000)">
            <g id="Group" transform="translate(597.000000, 578.000000)">
                <g id="Upload" transform="translate(81.000000, 0.000000)">
                    <path d="M59.48485,80.3919 C57.50135,70.0014 53.79185,55.4479 53.79185,46.3304 C53.79185,33.8854 61.88635,2.4264 61.88635,2.4264 C61.90835,2.3104 61.92085,2.1944 61.92085,2.0689 C61.92085,1.0719 61.10235,0.2564 60.09735,0.2564 L46.27885,0.2819 C45.79635,0.2819 45.34285,0.4699 45.00135,0.8084 L31.08535,14.7209 L17.16935,0.8019 C16.82785,0.4629 16.37435,0.2749 15.89185,0.2749 L2.07335,0.2499 C1.06835,0.2499 0.24985,1.0649 0.24985,2.0624 C0.24985,2.1874 0.26235,2.3034 0.28435,2.4194 C0.28435,2.4194 8.37885,33.8789 8.37885,46.3239 C8.37885,58.7689 1.46785,81.3424 1.46785,89.6324 C1.46785,97.9219 1.44085,101.1679 1.44085,101.1679 C1.44085,102.1744 2.26085,102.9959 3.26885,102.9959 L39.31035,102.9999" id="Stroke-1" stroke="#231F20" stroke-width="3.5" stroke-linecap="round" stroke-linejoin="round"></path>
                    <path d="M8.37865,52.2786 L53.79215,52.2851" id="Stroke-3" stroke="#231F20" stroke-width="3.5" stroke-linecap="round" stroke-linejoin="round"></path>
                    <path d="M8.37865,40.369 L53.79215,40.3755" id="Stroke-5" stroke="#231F20" stroke-width="3.5" stroke-linecap="round" stroke-linejoin="round"></path>
                    <path d="M84.5311,103.0025 C84.5311,115.49 74.4081,125.613 61.9206,125.613 C49.4331,125.613 39.3101,115.49 39.3101,103.0025 C39.3101,90.515 49.4331,80.392 61.9206,80.392 C74.4081,80.392 84.5311,90.515 84.5311,103.0025 L84.5311,103.0025 Z" id="Stroke-7" stroke="#231F20" stroke-width="3.5" stroke-linecap="round" stroke-linejoin="round"></path>
                    <g id="Group-12" transform="translate(54.500000, 93.863000)">
                        <polyline id="Fill-9" fill="#231F20" points="0.43905 7.0516 7.42055 0.0701 14.40205 7.0516"></polyline>
                        <polyline id="Stroke-11" stroke="#231F20" stroke-width="3.5" stroke-linecap="round" stroke-linejoin="round" points="0.43905 7.0516 7.42055 0.0701 14.40205 7.0516"></polyline>
                    </g>
                    <path d="M61.92065,97.4238 L61.92065,112.0723" id="Stroke-13" stroke="#231F20" stroke-width="3.5" stroke-linecap="round" stroke-linejoin="round"></path>
                </g>
            </g>
        </g>
    </g>
</svg>