<svg width="16" height="17" viewBox="0 0 16 17" xmlns="http://www.w3.org/2000/svg"><title>Fill 1</title><path d="M4.807 4.997c.012 1.91 1.542 3.436 3.418 3.45a3.441 3.441 0 0 0 3.474-3.435 3.442 3.442 0 0 0-3.435-3.455c-1.912-.006-3.44 1.533-3.458 3.44m5.17 3.647c.074.022.147.047.22.066.42.112.825.267 1.216.455.458.22.887.485 1.287.797.534.418 1.004.9 1.407 1.446a6.99 6.99 0 0 1 .986 1.847c.1.286.174.582.25.876.088.35.134.704.154 1.063.01.173.015.346.018.52.002.114-.084.203-.187.254-.1.05-.173.012-.248-.035-.084-.052-.118-.133-.12-.236-.007-.226-.006-.455-.036-.68-.04-.305-.098-.61-.166-.91a6.233 6.233 0 0 0-.763-1.853 6.734 6.734 0 0 0-1.85-1.998 6.442 6.442 0 0 0-1.628-.854c-.29-.1-.592-.174-.89-.25a3.963 3.963 0 0 0-.84-.117c-.26-.007-.52-.026-.782-.023-.187.003-.374.028-.56.052-.198.025-.396.05-.59.094a6.547 6.547 0 0 0-2.07.822 6.774 6.774 0 0 0-2.687 3.093c-.146.34-.273.69-.347 1.053-.055.274-.107.55-.143.826-.032.245-.042.494-.056.743-.007.162-.1.278-.258.306-.082.013-.24-.097-.27-.197a.694.694 0 0 1-.022-.187c.004-.173.01-.347.025-.52a9.72 9.72 0 0 1 .2-1.179c.1-.42.247-.826.425-1.22A7.334 7.334 0 0 1 6.177 8.75c.086-.027.175-.044.26-.07.035-.008.065-.027.106-.046-1.526-.83-2.33-2.092-2.28-3.826.03-1.093.487-2.03 1.304-2.764a3.981 3.981 0 0 1 5.639.266c.888.986 1.222 2.15.968 3.46s-1.02 2.24-2.196 2.85v.024" stroke="currentColor" stroke-width=".5" fill="currentColor" fill-rule="evenodd"/></svg>