<?xml version="1.0" encoding="UTF-8"?>
<svg width="89px" height="130px" viewBox="0 0 89 130" version="1.1" xmlns="http://www.w3.org/2000/svg" xmlns:xlink="http://www.w3.org/1999/xlink">
    <!-- Generator: Sketch 40.3 (33839) - http://www.bohemiancoding.com/sketch -->
    <title>Welcome</title>
    <desc>Created with Sketch.</desc>
    <defs></defs>
    <g id="Page-2" stroke="none" stroke-width="1" fill="none" fill-rule="evenodd" stroke-linecap="round" stroke-linejoin="round">
        <g id="Become-a-Lumumba-Designer" transform="translate(-1077.000000, -576.000000)" stroke="#231F20" stroke-width="3.5">
            <g id="Welcome" transform="translate(1079.000000, 578.000000)">
                <path d="M59.5089,80.5183 C57.5314,70.1198 53.7919,55.4848 53.7919,46.3303 C53.7919,33.8853 61.8859,2.4263 61.8859,2.4263 C61.9084,2.3103 61.9204,2.1943 61.9204,2.0688 C61.9204,1.0718 61.1024,0.2568 60.0974,0.2568 L46.2789,0.2818 C45.7959,0.2818 45.3429,0.4698 45.0014,0.8083 L31.0854,14.7208 L17.1694,0.8018 C16.8274,0.4628 16.3744,0.2748 15.8919,0.2748 L2.0734,0.2498 C1.0684,0.2498 0.2499,1.0653 0.2499,2.0623 C0.2499,2.1878 0.2624,2.3038 0.2844,2.4198 C0.2844,2.4198 8.3789,33.8788 8.3789,46.3238 C8.3789,58.7688 1.4674,81.3428 1.4674,89.6323 C1.4674,97.9218 1.4409,101.1678 1.4409,101.1678 C1.4409,102.1743 2.2609,102.9958 3.2689,102.9958 L39.3104,103.0003" id="Stroke-1"></path>
                <path d="M8.37865,52.2786 L53.79215,52.2851" id="Stroke-3"></path>
                <path d="M8.37865,40.369 L53.79215,40.3755" id="Stroke-5"></path>
                <path d="M84.5311,103.0025 C84.5311,115.49 74.4081,125.613 61.9206,125.613 C49.4331,125.613 39.3101,115.49 39.3101,103.0025 C39.3101,91.3335 48.1501,81.729 59.4986,80.52 C60.2941,80.4355 61.1021,80.392 61.9206,80.392 C74.4081,80.392 84.5311,90.515 84.5311,103.0025 L84.5311,103.0025 Z" id="Stroke-7"></path>
                <path d="M71.32955,96.04885 C68.73155,93.45085 64.51905,93.45085 61.92055,96.04885 C59.32255,93.45085 55.11005,93.45085 52.51155,96.04885 C49.91355,98.64685 49.91355,102.85935 52.51155,105.45785 L61.92055,114.86685 L71.32955,105.45785 C73.92755,102.85935 73.92755,98.64685 71.32955,96.04885 L71.32955,96.04885 Z" id="Stroke-9"></path>
            </g>
        </g>
    </g>
</svg>